HIERARCHY
ROOT Hips
{
	OFFSET 0.000000 0.000000 0.000000 
	CHANNELS 6 Xposition Yposition Zposition Zrotation Yrotation Xrotation
	JOINT LeftUpLeg
	{
		OFFSET 1.363060 -1.794630 0.839290 
		CHANNELS 3 Zrotation Yrotation Xrotation
		JOINT LeftLeg
		{
			OFFSET 2.448110 -6.726130 0.000000 
			CHANNELS 3 Zrotation Yrotation Xrotation
			JOINT LeftFoot
			{
				OFFSET 2.562200 -7.039590 0.000000 
				CHANNELS 3 Zrotation Yrotation Xrotation
				JOINT LeftToeBase
				{
					OFFSET 0.157640 -0.433110 2.322550 
					CHANNELS 3 Zrotation Yrotation Xrotation
					End Site
					{
						OFFSET 0.000000 0.000000 0.000000 
					}
				}
			}
		}
	}
	JOINT RightUpLeg
	{
		OFFSET -1.305520 -1.794630 0.839290 
		CHANNELS 3 Zrotation Yrotation Xrotation
		JOINT RightLeg
		{
			OFFSET -2.542530 -6.985550 0.000000 
			CHANNELS 3 Zrotation Yrotation Xrotation
			JOINT RightFoot
			{
				OFFSET -2.568260 -7.056230 0.000000 
				CHANNELS 3 Zrotation Yrotation Xrotation
				JOINT RightToeBase
				{
					OFFSET -0.164730 -0.452590 2.363150 
					CHANNELS 3 Zrotation Yrotation Xrotation
					End Site
					{
						OFFSET 0.000000 0.000000 0.000000 
					}
				}
			}
		}
	}
	JOINT Spine
	{
		OFFSET 0.028270 2.035590 -0.193380 
		CHANNELS 3 Zrotation Yrotation Xrotation
		JOINT Spine1
		{
			OFFSET 0.056720 2.048850 -0.042750 
			CHANNELS 3 Zrotation Yrotation Xrotation
			JOINT Neck1
			{
				OFFSET -0.054170 1.746240 0.172020 
				CHANNELS 3 Zrotation Yrotation Xrotation
				JOINT Head
				{
					OFFSET 0.104070 1.761360 -0.123970 
					CHANNELS 3 Zrotation Yrotation Xrotation
					End Site
					{
						OFFSET 0.000000 0.000000 0.000000 
					}
				}
			}
			JOINT LeftArm
			{
				OFFSET 3.362410 1.200890 -0.311210 
				CHANNELS 3 Zrotation Yrotation Xrotation
				JOINT LeftForeArm
				{
					OFFSET 4.983000 -0.000000 -0.000000 
					CHANNELS 3 Zrotation Yrotation Xrotation
					JOINT LeftHand
					{
						OFFSET 3.483560 -0.000000 -0.000000 
						CHANNELS 3 Zrotation Yrotation Xrotation
						JOINT LeftHandIndex1
						{
							OFFSET 0.715260 -0.000000 -0.000000 
							CHANNELS 3 Zrotation Yrotation Xrotation
							End Site
							{
								OFFSET 0.000000 0.000000 0.000000 
							}
						}
					}
				}
			}
			JOINT RightArm
			{
				OFFSET -3.136600 1.374050 -0.404650 
				CHANNELS 3 Zrotation Yrotation Xrotation
				JOINT RightForeArm
				{
					OFFSET -5.241900 -0.000000 -0.000000 
					CHANNELS 3 Zrotation Yrotation Xrotation
					JOINT RightHand
					{
						OFFSET -3.444170 -0.000000 -0.000000 
						CHANNELS 3 Zrotation Yrotation Xrotation
						JOINT RightHandIndex1
						{
							OFFSET -0.622530 -0.000000 -0.000000 
							CHANNELS 3 Zrotation Yrotation Xrotation
							End Site
							{
								OFFSET 0.000000 0.000000 0.000000 
							}
						}
					}
				}
			}
		}
	}
}
MOTION
Frames: 6
Frame Time: 0.041667
11.111274 14.256808 11.112806 177.201000 -19.370427 -145.281717 -6.566762 -30.327120 -74.297432 16.358334 25.715000 82.471499 -1.803678 -25.656949 -25.631757 1.169600 6.864900 19.315600 20.496620 19.134385 -69.851607 -17.295909 -26.765504 85.035887 -6.068201 -3.295715 -47.495037 -3.791600 11.877800 -35.301000 0.341500 2.423837 -5.112822 -1.338660 0.920396 3.205226 5.073935 2.068414 4.245376 -1.577600 0.904700 0.712100 -94.091057 -1.832133 46.161012 37.162972 -41.663320 -19.028152 -1.821782 0.231022 0.184810 -7.125000 0.000000 0.000000 90.259196 8.879924 45.486143 -46.732616 50.953483 -26.155581 0.978461 2.868535 -4.030686 7.125000 0.000000 0.000000 
11.122438 14.427011 11.054904 176.982132 -20.555437 -145.951384 -7.336389 -30.822011 -72.181946 15.669157 25.528361 80.589850 -2.024126 -25.336289 -24.421723 1.424200 7.546500 21.345000 21.562112 17.911758 -67.874783 -16.658442 -26.549956 83.464548 -5.738718 -3.999871 -46.633620 -3.961400 12.108800 -36.118000 0.298687 2.826806 -5.110798 -1.188514 1.136269 3.051252 4.782859 2.946159 3.837441 -1.678100 1.300600 0.573700 -93.326809 -1.528082 48.280815 38.867813 -42.779982 -20.526343 -1.803400 0.283857 1.620117 -7.125000 0.000000 0.000000 88.852167 9.475949 46.963446 -48.959041 51.862270 -27.954946 1.007966 2.857979 -4.462990 7.125000 0.000000 0.000000 
11.137433 14.610678 10.995360 176.921580 -21.686032 -146.309171 -7.791023 -31.012045 -70.560120 14.968534 25.334148 78.642991 -2.214756 -24.634921 -22.975360 1.683900 8.174200 23.244300 22.597191 16.895125 -66.304242 -15.984415 -26.336627 81.793110 -5.366166 -4.731768 -45.597988 -4.096600 12.287900 -36.758200 0.263625 3.287934 -5.168321 -0.961536 1.378640 2.949641 4.491291 3.906535 3.362479 -1.768200 1.735400 0.361800 -92.583465 -1.173916 50.279962 40.527803 -43.797086 -21.993901 -1.813299 0.321201 2.608217 -7.125000 0.000000 0.000000 87.154874 10.073633 48.763902 -50.924783 52.604157 -29.556848 1.130958 2.815507 -5.342057 7.125000 0.000000 0.000000 
11.149255 14.816017 10.924871 177.028116 -22.802849 -146.611599 -8.041386 -31.011065 -69.020283 14.223722 25.100694 76.539206 -2.467023 -23.945002 -21.131025 1.844500 8.534500 24.349600 23.733342 15.968376 -64.591701 -15.064893 -26.048534 79.475161 -4.943096 -5.239318 -44.263528 -4.080900 12.267300 -36.684100 0.216074 3.856085 -5.241945 -0.768049 1.670874 2.925606 4.222307 4.837945 2.891476 -1.846500 2.158900 0.129500 -91.744291 -0.956571 52.327554 41.963367 -44.623284 -23.264680 -1.858125 0.329542 3.261604 -7.125000 0.000000 0.000000 85.462490 10.404156 50.035866 -53.015065 53.325173 -31.231198 0.547359 2.927605 -5.798804 7.125000 0.000000 0.000000 
11.157354 15.043684 10.853834 177.249057 -24.200194 -146.871292 -8.065023 -30.976732 -67.636429 13.482101 24.842508 74.409824 -2.723643 -23.264725 -19.117526 1.828100 8.498500 24.238900 25.020590 14.913647 -62.731213 -13.925610 -25.643505 76.549236 -4.440980 -5.325236 -42.359437 -4.119500 12.317800 -36.865600 0.197465 4.359928 -5.337754 -0.636191 1.933077 2.889867 4.001638 5.628900 2.433208 -1.897000 2.516500 -0.103700 -90.991050 -0.956500 54.192944 42.999069 -45.194934 -24.193140 -1.895454 0.360682 3.663021 -7.125000 0.000000 0.000000 83.827248 10.484099 50.841455 -54.969386 53.961524 -32.915870 1.078701 2.732850 -6.179011 7.125000 0.000000 0.000000 
11.161295 15.296417 10.784768 177.289718 -25.922125 -147.144737 -8.345042 -31.120251 -66.028180 12.666375 24.514667 72.031371 -2.993027 -22.527777 -16.761353 1.816200 8.472300 24.158200 26.094311 13.535850 -61.269943 -13.084602 -25.258274 74.346087 -3.954897 -5.684204 -40.481812 -4.239900 12.472900 -37.426200 0.164298 4.787440 -5.471823 -0.613875 2.162669 2.646604 3.807409 6.305154 1.948606 -1.922600 2.821600 -0.372700 -90.323583 -0.968335 55.999724 43.859889 -45.649000 -24.983197 -1.907733 0.434979 3.768932 -7.125000 0.000000 0.000000 82.161250 10.626451 51.696578 -56.340209 54.360131 -34.030190 0.551590 2.861526 -7.447068 7.125000 0.000000 0.000000 
